<?xml version="1.0" encoding="iso-8859-1"?>
<!-- Uploaded to: SVG Repo, www.svgrepo.com, Generator: SVG Repo Mixer Tools -->
<!DOCTYPE svg PUBLIC "-//W3C//DTD SVG 1.1//EN" "http://www.w3.org/Graphics/SVG/1.1/DTD/svg11.dtd">
<svg fill="#000000" version="1.1" id="Capa_1" xmlns="http://www.w3.org/2000/svg" xmlns:xlink="http://www.w3.org/1999/xlink" 
	 width="800px" height="800px" viewBox="0 0 463.61 463.611"
	 xml:space="preserve">
<g>
	<g>
		<path d="M114.203,242.541c-31.424,54.746-23.984,125.753,22.772,172.504c48.594,48.594,123.449,54.85,178.851,18.859
			l20.971,20.967c11.65,11.653,30.549,11.653,42.194,0c11.654-11.654,11.654-30.545,0-42.194l-20.967-20.972
			c35.991-55.402,29.735-130.257-18.858-178.855l-22.999-22.999c-14.29,10.702-30.4,13.24-38.539,5.098l-29.787-29.783
			c-8.136-8.142-5.595-24.249,5.109-38.532L133.905,7.613c-10.151-10.151-26.611-10.151-36.76,0L83.364,21.389
			C73.213,31.54,73.686,47.555,82.965,58.51C110.144,90.587,154.443,160.551,114.203,242.541z"/>
	</g>
</g>
</svg>