<?xml version="1.0" encoding="UTF-8"?>
<svg xmlns="http://www.w3.org/2000/svg" xmlns:xlink="http://www.w3.org/1999/xlink" width="16px" height="16px" viewBox="0 0 16 16" version="1.1">
<g id="surface1">
<path style=" stroke:none;fill-rule:nonzero;fill:rgb(0%,0%,0%);fill-opacity:1;" d="M 3.941406 8.371094 C 2.855469 10.261719 3.113281 12.710938 4.726562 14.324219 C 6.40625 16 8.988281 16.21875 10.898438 14.976562 L 11.625 15.699219 C 12.027344 16.101562 12.679688 16.101562 13.078125 15.699219 C 13.480469 15.296875 13.480469 14.644531 13.078125 14.242188 L 12.355469 13.519531 C 13.597656 11.605469 13.382812 9.023438 11.707031 7.347656 L 10.910156 6.550781 C 10.417969 6.921875 9.863281 7.007812 9.582031 6.726562 L 8.554688 5.699219 C 8.273438 5.417969 8.359375 4.863281 8.730469 4.371094 L 4.621094 0.261719 C 4.269531 -0.0859375 3.703125 -0.0859375 3.351562 0.261719 L 2.878906 0.738281 C 2.527344 1.089844 2.542969 1.640625 2.863281 2.019531 C 3.800781 3.125 5.332031 5.539062 3.941406 8.371094 Z M 3.941406 8.371094 "/>
</g>
</svg>
